<svg width="89" height="82" viewBox="0 0 89 82" fill="none" xmlns="http://www.w3.org/2000/svg">
<path d="M1.36187 81.2521L87.6444 81.2521L87.6444 21.5161L1.36187 21.5161L1.36187 81.2521Z" fill="white"/>
<path d="M87.6444 81.8004H1.35557C1.28387 81.8012 1.21271 81.7878 1.14622 81.761C1.07973 81.7341 1.01923 81.6943 0.968225 81.6439C0.917224 81.5935 0.876737 81.5335 0.849104 81.4673C0.821472 81.4011 0.807246 81.3301 0.807251 81.2584V21.5224C0.807251 21.377 0.865019 21.2375 0.96785 21.1347C1.07068 21.0318 1.21015 20.9741 1.35557 20.9741H87.6444C87.7898 20.9741 87.9293 21.0318 88.0322 21.1347C88.135 21.2375 88.1928 21.377 88.1928 21.5224V81.2584C88.1928 81.3301 88.1785 81.4011 88.1509 81.4673C88.1233 81.5335 88.0828 81.5935 88.0318 81.6439C87.9808 81.6943 87.9203 81.7341 87.8538 81.761C87.7873 81.7878 87.7161 81.8012 87.6444 81.8004ZM1.92911 80.7038H87.0961V22.0896H1.9039L1.92911 80.7038Z" fill="black"/>
<path d="M1.36187 26.8544L87.6444 26.8544V18.9698L1.36187 18.9698V26.8544Z" fill="#F35A05"/>
<path d="M87.6444 27.4027H1.35557C1.21015 27.4027 1.07068 27.3449 0.96785 27.2421C0.865019 27.1393 0.807251 26.9998 0.807251 26.8544V18.9761C0.807251 18.8307 0.865019 18.6912 0.96785 18.5884C1.07068 18.4856 1.21015 18.4278 1.35557 18.4278H87.6444C87.7899 18.4278 87.9293 18.4856 88.0322 18.5884C88.135 18.6912 88.1928 18.8307 88.1928 18.9761V26.8544C88.1928 26.9998 88.135 27.1393 88.0322 27.2421C87.9293 27.3449 87.7899 27.4027 87.6444 27.4027ZM1.92911 26.306H87.0961V19.5244H1.9039L1.92911 26.306Z" fill="black"/>
<path d="M76.0036 42.1381C75.8581 42.1381 75.7187 42.0804 75.6158 41.9775C75.513 41.8747 75.4552 41.7353 75.4552 41.5898C75.4544 41.5181 75.4678 41.447 75.4947 41.3805C75.5215 41.314 75.5613 41.2535 75.6117 41.2025C75.6622 41.1515 75.7222 41.111 75.7884 41.0834C75.8545 41.0557 75.9255 41.0415 75.9973 41.0415H81.2788C81.4243 41.0415 81.5637 41.0993 81.6666 41.2021C81.7694 41.3049 81.8272 41.4444 81.8272 41.5898C81.8272 41.7353 81.7694 41.8747 81.6666 41.9775C81.5637 42.0804 81.4243 42.1381 81.2788 42.1381H75.9973H76.0036Z" fill="black"/>
<path d="M15.4418 42.2075C13.2107 42.2075 10.9355 42.2075 8.64135 42.1634C8.49592 42.1634 8.35645 42.1056 8.25362 42.0028C8.15079 41.8999 8.09302 41.7605 8.09302 41.6151C8.09302 41.4696 8.15079 41.3301 8.25362 41.2273C8.35645 41.1245 8.49592 41.0667 8.64135 41.0667C12.3851 41.1108 16.0784 41.1234 19.6142 41.0667C19.7591 41.0683 19.8976 41.1266 20.0001 41.2291C20.1026 41.3316 20.1609 41.4701 20.1625 41.6151C20.1633 41.6873 20.1497 41.759 20.1225 41.8259C20.0952 41.8928 20.0549 41.9536 20.0038 42.0047C19.9527 42.0557 19.8919 42.0961 19.825 42.1234C19.7581 42.1506 19.6864 42.1642 19.6142 42.1634C18.2528 42.1928 16.862 42.2075 15.4418 42.2075Z" fill="black"/>
<path d="M69.8144 54.8252C69.669 54.8252 69.5295 54.7674 69.4267 54.6646C69.3239 54.5618 69.2661 54.4223 69.2661 54.2769C69.2661 54.1315 69.3239 53.992 69.4267 53.8892C69.5295 53.7863 69.669 53.7286 69.8144 53.7286H81.3167C81.4621 53.7286 81.6016 53.7863 81.7044 53.8892C81.8072 53.992 81.865 54.1315 81.865 54.2769C81.865 54.4223 81.8072 54.5618 81.7044 54.6646C81.6016 54.7674 81.4621 54.8252 81.3167 54.8252H69.8144Z" fill="black"/>
<path d="M48.0011 67.544C47.8557 67.544 47.7162 67.4862 47.6134 67.3834C47.5105 67.2805 47.4528 67.1411 47.4528 66.9956C47.4528 66.8502 47.5105 66.7108 47.6134 66.6079C47.7162 66.5051 47.8557 66.4473 48.0011 66.4473H80.6864C80.8318 66.4473 80.9712 66.5051 81.0741 66.6079C81.1769 66.7108 81.2347 66.8502 81.2347 66.9956C81.2347 67.1411 81.1769 67.2805 81.0741 67.3834C80.9712 67.4862 80.8318 67.544 80.6864 67.544H48.0011Z" fill="black"/>
<path d="M19.8348 54.8442C16.1667 54.8442 12.4229 54.8442 8.64769 54.8127C8.50226 54.8127 8.3628 54.755 8.25996 54.6521C8.15713 54.5493 8.09937 54.4098 8.09937 54.2644C8.09937 54.119 8.15713 53.9795 8.25996 53.8767C8.3628 53.7738 8.50226 53.7161 8.64769 53.7161C15.2087 53.7539 21.6562 53.7539 27.8139 53.7161C27.9577 53.7177 28.0953 53.7751 28.1976 53.8762C28.2999 53.9774 28.359 54.1143 28.3622 54.2581C28.3606 54.4036 28.3025 54.5428 28.2002 54.6463C28.0979 54.7498 27.9594 54.8094 27.8139 54.8127L19.8348 54.8442Z" fill="black"/>
<g opacity="0.13">
<path d="M87.6381 27.472H1.35559V30.0309H87.6381V27.472Z" fill="black"/>
</g>
<path d="M47.9948 56.7728C61.0827 56.7728 71.6925 46.1629 71.6925 33.075C71.6925 19.9871 61.0827 9.37726 47.9948 9.37726C34.9069 9.37726 24.297 19.9871 24.297 33.075C24.297 46.1629 34.9069 56.7728 47.9948 56.7728Z" fill="white"/>
<path d="M47.9948 57.3274C43.1979 57.3287 38.5083 55.9074 34.5192 53.2432C30.53 50.5791 27.4206 46.7918 25.584 42.3604C23.7474 37.929 23.2663 33.0524 24.2013 28.3475C25.1364 23.6426 27.4457 19.3206 30.8372 15.9282C34.2287 12.5358 38.5501 10.2254 43.2548 9.28911C47.9594 8.35281 52.8361 8.83272 57.268 10.6681C61.6999 12.5036 65.488 15.6121 68.1532 19.6005C70.8183 23.5889 72.2409 28.2781 72.2409 33.075C72.2342 39.504 69.6778 45.6679 65.1324 50.2145C60.587 54.761 54.4238 57.3191 47.9948 57.3274ZM47.9948 9.9256C43.4145 9.92435 38.9367 11.2815 35.1278 13.8254C31.3189 16.3693 28.35 19.9857 26.5966 24.2171C24.8432 28.4485 24.3841 33.1049 25.2774 37.5973C26.1706 42.0896 28.3761 46.2161 31.6149 49.4549C34.8537 52.6937 38.9802 54.8992 43.4726 55.7925C47.9649 56.6857 52.6213 56.2266 56.8527 54.4732C61.0841 52.7199 64.7005 49.7509 67.2444 45.942C69.7883 42.1331 71.1455 37.6553 71.1442 33.075C71.1359 26.938 68.6943 21.0547 64.3547 16.7151C60.0151 12.3756 54.1318 9.93393 47.9948 9.9256Z" fill="black"/>
<path d="M58.1911 42.9058C63.8226 37.2743 63.8226 28.1439 58.1911 22.5124C52.5596 16.8809 43.4292 16.8809 37.7977 22.5124C32.1662 28.1439 32.1662 37.2743 37.7977 42.9058C43.4292 48.5373 52.5596 48.5373 58.1911 42.9058Z" fill="white"/>
<path d="M47.9949 47.6781C45.0355 47.6781 42.1424 46.8009 39.6814 45.1572C37.2203 43.5135 35.3018 41.1772 34.1681 38.4435C33.0344 35.7098 32.7365 32.7014 33.312 29.7985C33.8876 26.8955 35.3107 24.2283 37.4016 22.1339C39.4925 20.0395 42.1573 18.6119 45.0592 18.0315C47.9612 17.4511 50.9701 17.7439 53.7057 18.873C56.4413 20.0021 58.7808 21.9167 60.4286 24.375C62.0764 26.8332 62.9586 29.7248 62.9636 32.6842C62.9652 36.657 61.3895 40.4679 58.5827 43.2794C55.7759 46.091 51.9677 47.6731 47.9949 47.6781ZM47.9949 18.8374C45.2525 18.8374 42.5717 19.6507 40.2915 21.1742C38.0113 22.6978 36.2341 24.8633 35.1846 27.397C34.1352 29.9306 33.8606 32.7185 34.3956 35.4082C34.9306 38.0979 36.2512 40.5685 38.1904 42.5077C40.1295 44.4468 42.6001 45.7674 45.2898 46.3024C47.9795 46.8375 50.7675 46.5629 53.3011 45.5134C55.8347 44.4639 58.0002 42.6867 59.5238 40.4065C61.0474 38.1263 61.8606 35.4455 61.8606 32.7032C61.8631 30.8807 61.5063 29.0756 60.8106 27.3912C60.1149 25.7067 59.0939 24.1759 57.8061 22.8864C56.5183 21.5968 54.9889 20.5738 53.3054 19.8758C51.6219 19.1778 49.8174 18.8185 47.9949 18.8185V18.8374Z" fill="black"/>
<path d="M51.5375 36.2521C53.4942 34.2954 53.4942 31.1229 51.5375 29.1661C49.5807 27.2094 46.4082 27.2094 44.4515 29.1661C42.4947 31.1228 42.4947 34.2954 44.4515 36.2521C46.4082 38.2089 49.5807 38.2088 51.5375 36.2521Z" fill="white"/>
<path d="M47.9948 38.2683C46.8964 38.2683 45.8226 37.9429 44.909 37.3332C43.9954 36.7235 43.2829 35.8568 42.8615 34.8425C42.44 33.8283 42.3284 32.7118 42.5409 31.6342C42.7534 30.5566 43.2803 29.5661 44.0552 28.7876C44.8301 28.0092 45.8182 27.4778 46.8949 27.2605C47.9716 27.0432 49.0885 27.1496 50.1046 27.5665C51.1208 27.9834 51.9907 28.692 52.6046 29.6028C53.2184 30.5136 53.5487 31.5859 53.5536 32.6843C53.5561 33.4161 53.4142 34.1413 53.1361 34.8183C52.8579 35.4953 52.4489 36.1107 51.9326 36.6294C51.4162 37.1481 50.8026 37.5599 50.1269 37.8411C49.4512 38.1224 48.7267 38.2675 47.9948 38.2683ZM47.9948 28.2472C47.1122 28.2472 46.2495 28.5089 45.5157 28.9993C44.7819 29.4896 44.2099 30.1865 43.8722 31.0018C43.5344 31.8172 43.4461 32.7144 43.6183 33.58C43.7904 34.4456 44.2154 35.2407 44.8395 35.8648C45.4635 36.4888 46.2586 36.9138 47.1242 37.086C47.9898 37.2581 48.887 37.1698 49.7024 36.832C50.5177 36.4943 51.2146 35.9224 51.705 35.1886C52.1953 34.4547 52.457 33.592 52.457 32.7095C52.4487 31.5309 51.9751 30.4033 51.1393 29.5723C50.3036 28.7413 49.1734 28.2741 47.9948 28.2724V28.2472Z" fill="black"/>
<path d="M47.9948 33.2578C47.9234 33.2585 47.8527 33.2449 47.7867 33.2178C47.7206 33.1907 47.6607 33.1508 47.6103 33.1002C47.5091 32.9966 47.4524 32.8575 47.4524 32.7126C47.4524 32.5678 47.5091 32.4286 47.6103 32.325L76.4132 3.28894C76.4632 3.2357 76.5234 3.19298 76.5902 3.16332C76.6569 3.13365 76.729 3.11763 76.802 3.11619C76.8751 3.11476 76.9477 3.12795 77.0156 3.15497C77.0835 3.18199 77.1453 3.22231 77.1973 3.27356C77.2494 3.3248 77.2908 3.38594 77.3189 3.45338C77.347 3.52082 77.3614 3.59319 77.3611 3.66626C77.3609 3.73933 77.346 3.81161 77.3174 3.87886C77.2889 3.94611 77.2471 4.00697 77.1947 4.05786L48.3855 33.1002C48.2811 33.2021 48.1407 33.2587 47.9948 33.2578Z" fill="black"/>
<path d="M66.4174 14.1735L74.075 6.50958L80.0184 8.14826L72.3544 15.8059L66.4174 14.1735Z" fill="white"/>
<path d="M72.3354 16.3542C72.2873 16.3603 72.2386 16.3603 72.1905 16.3542L66.2534 14.7218C66.1613 14.695 66.0775 14.645 66.0102 14.5766C65.9429 14.5082 65.8943 14.4237 65.869 14.3311C65.8419 14.2326 65.8429 14.1284 65.8718 14.0304C65.9008 13.9324 65.9566 13.8445 66.0328 13.7765L73.6968 6.11881C73.7638 6.04914 73.8483 5.99889 73.9415 5.97337C74.0347 5.94785 74.1331 5.94801 74.2262 5.97384L80.1696 7.61252C80.2618 7.63706 80.346 7.68554 80.4135 7.75305C80.481 7.82056 80.5295 7.90471 80.554 7.99698C80.5785 8.09018 80.578 8.18819 80.5526 8.28113C80.5271 8.37407 80.4776 8.45867 80.4091 8.52639L72.7514 16.1904C72.6968 16.2444 72.6317 16.2868 72.5602 16.315C72.4887 16.3432 72.4123 16.3565 72.3354 16.3542ZM67.4509 13.8899L72.1716 15.1945L78.9405 8.42555L74.2262 7.12092L67.4509 13.8899Z" fill="black"/>
<path d="M72.3985 0.528381L64.7345 8.18604L66.3732 14.1294L74.0308 6.46543L72.3985 0.528381Z" fill="white"/>
<path d="M66.3731 14.6778C66.3271 14.6839 66.2805 14.6839 66.2344 14.6778C66.1413 14.6536 66.0562 14.6054 65.9876 14.5379C65.919 14.4704 65.8693 14.386 65.8437 14.2933L64.2113 8.35625C64.1842 8.26273 64.1827 8.16364 64.2071 8.06937C64.2315 7.9751 64.2809 7.88914 64.35 7.82054L72.0076 0.156576C72.0767 0.090178 72.1616 0.0425755 72.2543 0.0183031C72.3469 -0.00596924 72.4443 -0.00610322 72.537 0.0179184C72.6302 0.0420805 72.7153 0.0903324 72.7839 0.157817C72.8525 0.225301 72.9021 0.309642 72.9278 0.402377L74.5602 6.33942C74.5873 6.43294 74.5888 6.53205 74.5644 6.62632C74.54 6.72059 74.4906 6.80654 74.4215 6.87515L66.7575 14.5328C66.7066 14.5817 66.6462 14.6197 66.5802 14.6446C66.5141 14.6695 66.4436 14.6808 66.3731 14.6778ZM65.3521 8.37516L66.6504 13.1021L73.4194 6.33312L72.1211 1.60618L65.3521 8.37516Z" fill="black"/>
<path d="M35.2888 32.8922C35.2402 32.8909 35.1935 32.8731 35.1564 32.8418C35.1221 32.8075 35.1029 32.7611 35.1029 32.7126C35.1029 32.6642 35.1221 32.6177 35.1564 32.5834L47.8183 20.0791C47.8351 20.0614 47.8553 20.0473 47.8776 20.0376C47.9 20.0278 47.9241 20.0226 47.9484 20.0224C47.9728 20.0221 47.997 20.0266 48.0196 20.0358C48.0422 20.045 48.0627 20.0586 48.0799 20.0759C48.0971 20.0931 48.1108 20.1136 48.12 20.1362C48.1291 20.1588 48.1337 20.183 48.1334 20.2073C48.1331 20.2317 48.128 20.2558 48.1182 20.2781C48.1085 20.3005 48.0944 20.3207 48.0767 20.3375L35.4148 32.8481C35.3796 32.8777 35.3347 32.8934 35.2888 32.8922Z" fill="black"/>
<path d="M35.9947 28.4112C35.9459 28.4109 35.8989 28.393 35.8623 28.3608C35.8295 28.3258 35.8113 28.2796 35.8113 28.2316C35.8113 28.1836 35.8295 28.1374 35.8623 28.1024L43.6145 20.3439C43.6495 20.3111 43.6957 20.2928 43.7437 20.2928C43.7917 20.2928 43.8379 20.3111 43.8729 20.3439C43.8907 20.3604 43.9048 20.3804 43.9145 20.4026C43.9242 20.4248 43.9292 20.4488 43.9292 20.4731C43.9292 20.4973 43.9242 20.5213 43.9145 20.5435C43.9048 20.5658 43.8907 20.5858 43.8729 20.6023L36.1207 28.3608C36.0858 28.3917 36.0412 28.4095 35.9947 28.4112Z" fill="black"/>
<path d="M35.9947 36.3649C35.9459 36.3647 35.8989 36.3468 35.8623 36.3145C35.8295 36.2795 35.8113 36.2333 35.8113 36.1853C35.8113 36.1373 35.8295 36.0912 35.8623 36.0561L51.1776 20.5391C51.2122 20.5062 51.2582 20.4881 51.3059 20.4887C51.3536 20.4893 51.3992 20.5085 51.4329 20.5422C51.4666 20.576 51.4859 20.6216 51.4864 20.6693C51.487 20.717 51.4689 20.763 51.436 20.7975L36.1207 36.3082C36.1046 36.3257 36.0851 36.3397 36.0635 36.3494C36.0418 36.3592 36.0184 36.3645 35.9947 36.3649Z" fill="black"/>
<path d="M49.8792 26.6401C49.8559 26.6404 49.8328 26.6361 49.8112 26.6275C49.7895 26.6188 49.7698 26.606 49.7532 26.5897C49.7189 26.5554 49.6997 26.5089 49.6997 26.4604C49.6997 26.412 49.7189 26.3655 49.7532 26.3312L54.3667 21.5854C54.4017 21.5526 54.4479 21.5344 54.4959 21.5344C54.5439 21.5344 54.5901 21.5526 54.6251 21.5854C54.6594 21.6197 54.6786 21.6661 54.6786 21.7146C54.6786 21.7631 54.6594 21.8095 54.6251 21.8438L50.0116 26.5834C49.9767 26.619 49.9291 26.6394 49.8792 26.6401Z" fill="black"/>
<path d="M37.2489 39.1444C37.2242 39.1444 37.1997 39.1394 37.1769 39.1297C37.1542 39.1199 37.1337 39.1056 37.1166 39.0877C37.0838 39.0527 37.0656 39.0065 37.0656 38.9585C37.0656 38.9105 37.0838 38.8643 37.1166 38.8293L41.4906 34.5625C41.5256 34.5297 41.5718 34.5114 41.6198 34.5114C41.6678 34.5114 41.714 34.5297 41.749 34.5625C41.7832 34.5967 41.8025 34.6432 41.8025 34.6917C41.8025 34.7401 41.7832 34.7866 41.749 34.8209L37.3813 39.094C37.3447 39.1263 37.2977 39.1442 37.2489 39.1444Z" fill="black"/>
<path d="M44.4654 44.9744C44.4435 44.9754 44.4216 44.9721 44.401 44.9645C44.3804 44.9569 44.3616 44.9453 44.3456 44.9303C44.3114 44.896 44.2921 44.8496 44.2921 44.8011C44.2921 44.7526 44.3114 44.7062 44.3456 44.6719L49.7532 38.8357C49.7883 38.8029 49.8345 38.7847 49.8824 38.7847C49.9304 38.7847 49.9766 38.8029 50.0116 38.8357C50.0459 38.87 50.0651 38.9164 50.0651 38.9649C50.0651 39.0133 50.0459 39.0598 50.0116 39.0941L44.604 44.9177C44.5868 44.9371 44.5653 44.9523 44.5413 44.9621C44.5172 44.972 44.4913 44.9762 44.4654 44.9744Z" fill="black"/>
<path d="M39.2278 41.7222C39.2031 41.7222 39.1786 41.7172 39.1558 41.7074C39.1331 41.6977 39.1125 41.6834 39.0955 41.6655C39.0627 41.6304 39.0444 41.5842 39.0444 41.5363C39.0444 41.4883 39.0627 41.4421 39.0955 41.407L42.877 37.6255C42.9121 37.5927 42.9582 37.5745 43.0062 37.5745C43.0542 37.5745 43.1004 37.5927 43.1354 37.6255C43.1697 37.6598 43.1889 37.7062 43.1889 37.7547C43.1889 37.8032 43.1697 37.8496 43.1354 37.8839L39.3539 41.697C39.3168 41.7215 39.2715 41.7306 39.2278 41.7222Z" fill="black"/>
<path d="M41.6166 43.5626C41.5919 43.5626 41.5674 43.5575 41.5446 43.5478C41.5219 43.538 41.5013 43.5238 41.4843 43.5058C41.4515 43.4708 41.4332 43.4246 41.4332 43.3766C41.4332 43.3286 41.4515 43.2825 41.4843 43.2474L45.7511 38.9869C45.7676 38.9691 45.7876 38.955 45.8099 38.9453C45.8321 38.9356 45.8561 38.9306 45.8803 38.9306C45.9046 38.9306 45.9286 38.9356 45.9508 38.9453C45.973 38.955 45.993 38.9691 46.0095 38.9869C46.0423 39.0219 46.0606 39.0681 46.0606 39.1161C46.0606 39.164 46.0423 39.2102 46.0095 39.2453L41.7427 43.5058C41.7266 43.5233 41.7071 43.5373 41.6854 43.547C41.6638 43.5568 41.6404 43.5621 41.6166 43.5626Z" fill="black"/>
<path d="M54.102 30.2893C54.0569 30.289 54.0139 30.2709 53.9822 30.2389C53.948 30.2046 53.9287 30.1582 53.9287 30.1097C53.9287 30.0612 53.948 30.0148 53.9822 29.9805C55.3814 28.4931 56.8373 27.0246 58.3058 25.6128C58.3409 25.5794 58.3878 25.5613 58.4363 25.5624C58.4848 25.5636 58.5308 25.584 58.5642 25.6191C58.5976 25.6542 58.6157 25.7011 58.6146 25.7496C58.6134 25.7981 58.593 25.8441 58.5579 25.8775C57.0957 27.283 55.6461 28.7515 54.2532 30.2326C54.2335 30.2523 54.2098 30.2675 54.1837 30.2773C54.1576 30.2871 54.1298 30.2912 54.102 30.2893Z" fill="black"/>
<path d="M54.7197 33.9007C54.6731 33.899 54.6286 33.8811 54.5937 33.8503C54.5594 33.816 54.5402 33.7695 54.5402 33.7211C54.5402 33.6726 54.5594 33.6261 54.5937 33.5919L59.6357 28.4237C59.67 28.3895 59.7165 28.3702 59.7649 28.3702C59.8134 28.3702 59.8599 28.3895 59.8941 28.4237C59.9269 28.4588 59.9452 28.505 59.9452 28.5529C59.9452 28.6009 59.9269 28.6471 59.8941 28.6821L54.8521 33.8503C54.8345 33.8671 54.8137 33.8802 54.791 33.8888C54.7682 33.8975 54.744 33.9015 54.7197 33.9007Z" fill="black"/>
<path d="M47.4968 45.6298C47.4502 45.628 47.4057 45.6102 47.3708 45.5794C47.3365 45.5451 47.3173 45.4986 47.3173 45.4502C47.3173 45.4017 47.3365 45.3552 47.3708 45.3209C51.8456 40.5499 55.9612 36.2767 60.3163 31.8775C60.3508 31.8446 60.3969 31.8265 60.4446 31.8271C60.4923 31.8277 60.5379 31.8469 60.5716 31.8806C60.6053 31.9144 60.6245 31.9599 60.6251 32.0076C60.6257 32.0553 60.6076 32.1014 60.5747 32.1359C56.2196 36.5477 52.1103 40.802 47.6355 45.5668C47.6185 45.5869 47.5973 45.6031 47.5733 45.614C47.5493 45.6249 47.5232 45.6303 47.4968 45.6298Z" fill="black"/>
<path d="M51.8961 44.9744C51.8473 44.9741 51.8003 44.9562 51.7637 44.924C51.7295 44.8897 51.7102 44.8432 51.7102 44.7947C51.7102 44.7463 51.7295 44.6998 51.7637 44.6655C52.394 44.0353 54.0768 42.2768 55.6965 40.5751C57.3163 38.8734 58.9991 37.115 59.6419 36.4848C59.6762 36.4505 59.7227 36.4313 59.7712 36.4313C59.8196 36.4313 59.8661 36.4505 59.9004 36.4848C59.9331 36.5198 59.9514 36.566 59.9514 36.614C59.9514 36.6619 59.9331 36.7081 59.9004 36.7432C59.2701 37.3734 57.581 39.1319 55.9612 40.8273C54.3415 42.5227 52.665 44.2937 52.0158 44.924C51.9841 44.9559 51.9411 44.9741 51.8961 44.9744Z" fill="black"/>
<g opacity="0.13">
<path d="M67.8795 45.7055C67.3879 45.8315 67.1925 46.2727 67.0097 46.7013C66.7947 47.1692 66.5238 47.6094 66.203 48.0122C65.2261 49.1026 63.0517 52.3421 60.4865 53.6846C58.7557 54.7998 56.9007 55.7093 54.9592 56.3947C53.571 56.9505 52.0928 57.2474 50.5978 57.2707C49.2112 57.3212 47.8183 57.3401 46.4317 57.2707C46.4279 57.0982 46.3809 56.9293 46.295 56.7796C46.2091 56.6299 46.0871 56.5041 45.9401 56.4136C44.4779 56.0039 43.3057 56.0985 42.1271 55.7833C40.9485 55.4682 39.9401 55.2476 38.8497 54.9892C38.7161 54.9513 38.5761 54.9413 38.4384 54.9597C38.3007 54.9782 38.1683 55.0246 38.0493 55.0963C37.5766 54.7938 37.0913 54.4661 36.5997 54.1384C34.3245 52.4871 33.0639 51.8316 31.2299 49.8463C30.8171 49.3336 30.4541 48.7828 30.1458 48.2013C29.6263 47.7564 29.1318 47.2829 28.6647 46.7832C28.2424 46.3294 27.8517 45.8504 27.4735 45.3588C27.3988 45.4157 27.3311 45.4813 27.2719 45.5542C27.4215 46.1007 27.6046 46.6374 27.8202 47.1614C28.4166 48.5934 29.1668 49.9565 30.0576 51.2266C31.1355 52.7324 32.3738 54.1166 33.7509 55.3548L33.9148 55.4556C35.1678 56.3155 36.4823 57.0822 37.8476 57.7497C38.4211 58.0333 39.001 58.3044 39.5934 58.5628C41.8615 59.3846 44.2078 59.9717 46.5956 60.3149C47.3204 60.4157 48.0389 60.4851 48.7574 60.5418C50.9239 60.2422 53.0645 59.7787 55.1608 59.1552C57.7169 58.4825 60.0872 57.2391 62.0937 55.5186C64.0655 53.6702 65.7124 51.5034 66.9656 49.1089C67.5644 48.0122 68.1064 46.8904 68.6232 45.7622C68.3904 45.6537 68.1261 45.6336 67.8795 45.7055Z" fill="black"/>
</g>
<g opacity="0.13">
<path d="M73.5959 6.89405C72.0581 8.19238 70.6526 9.63568 69.1841 10.9907C68.7807 11.35 68.3584 11.6903 67.9236 12.0433C67.6967 12.2576 67.3878 12.4277 67.2933 12.7429C67.1994 12.9772 67.1887 13.2366 67.263 13.4779C67.3373 13.7191 67.4921 13.9276 67.7015 14.0685C67.911 14.2094 68.1625 14.2741 68.4139 14.2519C68.6654 14.2298 68.9017 14.122 69.0832 13.9467C70.5707 12.6861 71.9383 11.3185 73.3375 9.96972C73.848 9.48442 74.3585 8.99911 74.8879 8.53902C75.0896 8.34995 75.3543 8.19868 75.4363 7.90876C75.5203 7.67089 75.5171 7.41091 75.4274 7.17513C75.3377 6.93936 75.1671 6.74309 74.9462 6.62128C74.7253 6.49947 74.4683 6.46003 74.221 6.50998C73.9737 6.55993 73.7522 6.69603 73.5959 6.89405Z" fill="black"/>
</g>
<path d="M35.5913 73.4621H8.67919C8.53376 73.4621 8.39429 73.4043 8.29146 73.3015C8.18863 73.1986 8.13086 73.0592 8.13086 72.9137V63.567C8.13086 63.4216 8.18863 63.2821 8.29146 63.1793C8.39429 63.0764 8.53376 63.0187 8.67919 63.0187H35.5913C35.7367 63.0187 35.8762 63.0764 35.979 63.1793C36.0818 63.2821 36.1396 63.4216 36.1396 63.567V72.9326C36.1347 73.0748 36.0748 73.2094 35.9725 73.3082C35.8702 73.407 35.7335 73.4622 35.5913 73.4621ZM9.196 72.3906H35.0366V64.0964H9.196V72.3906Z" fill="black"/>
</svg>
